<?xml version="1.0" encoding="UTF-8"?>
<svg width="273px" height="263px" viewBox="0 0 273 263" version="1.1" xmlns="http://www.w3.org/2000/svg" xmlns:xlink="http://www.w3.org/1999/xlink">
    <!-- Generator: Sketch 50.2 (55047) - http://www.bohemiancoding.com/sketch -->
    <title>Group 2</title>
    <desc>Created with Sketch.</desc>
    <defs>
        <linearGradient x1="38.3532978%" y1="12.6415908%" x2="72.1756972%" y2="98.6388303%" id="linearGradient-1">
            <stop stop-color="#FFB900" offset="0%"></stop>
            <stop stop-color="#FF3B8F" offset="100%"></stop>
        </linearGradient>
    </defs>
    <g id="Page-1" stroke="none" stroke-width="1" fill="none" fill-rule="evenodd">
        <g id="Desktop" transform="translate(-360.000000, -248.000000)">
            <g id="Group-2" transform="translate(360.000000, 248.000000)">
                <path d="M0.175089077,100.375521 C0.175089077,100.375521 110.133564,96.1168924 112.893245,0.0273490108 C112.893245,0.0273490108 186.037473,79.723067 272.644459,26.9804817 C237.630428,80.0427714 171.257252,109.729479 262.38447,208.473771 C262.38447,208.473771 188.731728,206.650473 188.731728,262.989678 C158.883518,225.611101 116.015285,205.174405 39.1948146,231.163715 C39.1948146,231.163715 142.378026,116.545678 0.175089077,100.375521 Z" id="Fill-1-Copy" fill="url(#linearGradient-1)" opacity="0.727064732"></path>
                <g id="Group-50" transform="translate(153.297980, 130.909375) rotate(6.000000) translate(-153.297980, -130.909375) translate(64.040404, 52.868750)">
                    <path d="M56.31813,134.864549 C56.31813,134.864549 17.5599404,122.963354 0.415685281,106.601967 C0.415685281,106.601967 26.5043996,42.639192 39.1738749,50.8198853" id="Fill-4" fill="#FF343E"></path>
                    <path d="M116.107105,135.212508 C116.107105,135.212508 159.921523,122.963523 177.064078,106.602137 C177.064078,106.602137 150.977064,42.6393617 138.305889,50.820055" id="Fill-6" fill="#FF343E"></path>
                    <path d="M139.9756,50.6673668 C136.718124,24.9512843 132.042727,2.13627728 132.042727,2.13627728 C132.042727,2.13627728 129.060674,-3.81347211 124.589295,6.59816519 C122.843246,10.6630638 120.984989,14.2715945 119.366451,17.1641872 C113.604662,15.0520007 89.9981586,6.36065024 61.9797805,17.756278 C60.0807194,14.5735778 59.121838,12.0949396 56.7637378,6.59816519 C52.2906582,-3.81347211 49.3086051,2.13627728 49.3086051,2.13627728 C49.3086051,2.13627728 43.8630429,24.9953943 39.6551857,51.4087528 C32.3955696,58.8735082 9.48952543,83.7837364 20.8413889,89.9167116 C26.1373384,92.7787667 31.3448804,88.6731512 35.710851,82.6623265 C35.0919984,89.9608215 34.7672709,96.9522436 34.8845808,103.226031 C34.3694371,124.792388 35.3759225,155.486105 45.2282588,155.995066 C53.278442,156.410717 55.8099569,145.632628 56.4135081,135.383858 C75.9158634,139.995041 105.404866,141.109665 123.844631,133.039247 C123.982343,144.307634 125.820199,154.339248 135.02478,153.864218 C145.966909,153.297575 144.685,114.253511 143.049461,92.4309769 C143.074964,88.4373328 142.954253,84.1959945 142.721334,79.8155403 C147.434134,87.2684199 153.418641,93.2130797 159.517059,89.9167116 C171.280357,83.5597937 146.254233,57.04125 139.9756,50.6673668" id="Fill-8" fill="#FFFFFF"></path>
                    <path d="M39.1738749,50.0759546 C39.1738749,50.0759546 47.3736709,68.6699818 87.622887,67.1821203 C87.622887,67.1821203 114.454564,68.6699818 139.796915,50.0759546 C139.796915,50.0759546 78.6767277,80.5711771 39.1738749,50.0759546" id="Fill-10" fill="#FF343E"></path>
                    <path d="M117.498503,83.108685 L122.012386,77.2081351 C122.012386,77.2081351 124.324582,73.5215639 120.164329,72.5986486 C115.980274,71.6706438 116.005776,76.2869164 116.005776,76.2869164 C116.005776,76.2869164 113.69698,71.6757334 110.924045,73.5215639 C108.151109,75.3656978 110.461605,78.1310503 110.461605,78.1310503 L117.498503,83.108685 Z" id="Fill-12" fill="#FF343E"></path>
                    <path d="M51.8452204,35.1997149 L37.6847185,31.482606" id="Stroke-14" stroke="#3B356B" stroke-width="1.035" stroke-linecap="round"></path>
                    <path d="M51.8452204,39.6631297 L37.6847185,38.1752683" id="Stroke-16" stroke="#3B356B" stroke-width="1.035" stroke-linecap="round"></path>
                    <path d="M51.8452204,44.1263749 L39.1740449,44.1263749" id="Stroke-18" stroke="#3B356B" stroke-width="1.035" stroke-linecap="round"></path>
                    <path d="M127.870403,35.1997149 L142.032605,31.482606" id="Stroke-20" stroke="#3B356B" stroke-width="1.035" stroke-linecap="round"></path>
                    <path d="M127.870403,39.6631297 L142.032605,38.1752683" id="Stroke-22" stroke="#3B356B" stroke-width="1.035" stroke-linecap="round"></path>
                    <path d="M127.870403,44.1263749 L140.541578,44.1263749" id="Stroke-24" stroke="#3B356B" stroke-width="1.035" stroke-linecap="round"></path>
                    <path d="M49.0925167,21.5745004 C51.2091964,21.5745004 53.3173753,21.7679055 55.2215369,20.7007847 C57.4708278,19.4419555 57.7581522,17.4162924 56.9335823,15.0682875 C56.3368316,13.3615729 55.2062356,9.57829914 52.9671456,9.58508529 C50.6855519,9.59017489 49.1418209,13.2496016 48.6198766,15.069984 C48.2900486,16.2117523 48.3376527,17.4553127 48.3376527,18.6344047 C48.3376527,19.4470451 48.1370356,20.5735446 48.7898911,21.1961731" id="Fill-26" fill="#FF343E"></path>
                    <path d="M131.851801,21.5745004 C129.735121,21.5745004 127.626942,21.7679055 125.722781,20.7007847 C123.47349,19.4419555 123.186165,17.4162924 124.009035,15.0682875 C124.607486,13.3615729 125.738082,9.57829914 127.977172,9.58508529 C130.258766,9.59017489 131.802497,13.2496016 132.324441,15.069984 C132.654269,16.2117523 132.606665,17.4553127 132.606665,18.6344047 C132.606665,19.4470451 132.807282,20.5735446 132.154427,21.1961731" id="Fill-28" fill="#FF343E"></path>
                    <path d="M18.9532087,79.182054 C17.0830499,83.935746 17.1238534,87.9514451 20.8335683,89.9584464 C24.1301481,91.7381119 27.392725,90.8168932 30.4393835,88.4213854 C25.7248834,86.5382311 21.3436115,83.3402621 18.9532087,79.182054" id="Fill-30" fill="#F7F7F7"></path>
                    <path d="M47.505262,143.637163 C43.6680363,143.883161 40.0314277,143.397952 36.5920358,142.30708 C38.1612689,150.031405 40.7199861,155.380581 44.783331,155.589255 C50.8528461,155.903114 53.7838949,149.849876 55.1185082,142.461464 C52.6226964,143.051859 50.0877812,143.470903 47.505262,143.637163" id="Fill-32" fill="#F7F7F7"></path>
                    <path d="M124.234304,142.361538 C125.643724,149.322423 128.578173,154.861611 134.389266,154.561324 C138.053077,154.373009 140.334671,149.8721 141.689686,143.15891 C135.904095,143.345529 130.082801,142.510834 124.234304,142.361538" id="Fill-34" fill="#F7F7F7"></path>
                    <path d="M155.329944,84.0662095 C153.158859,85.0315381 150.744654,86.1512514 148.287946,86.8671893 C151.666133,89.9888143 155.346945,91.4325659 159.071961,89.4187785 C162.434847,87.6017891 162.786777,84.1391605 161.436862,79.9707732 C159.809824,81.7538319 157.667642,83.0279299 155.329944,84.0662095" id="Fill-36" fill="#F7F7F7"></path>
                    <path d="M78.1826658,35.6850937 C78.1826658,32.6465989 75.7140562,30.1849262 72.6690978,30.1849262 C69.6241394,30.1849262 67.15723,32.6465989 67.15723,35.6850937 C67.15723,38.7235885 69.6241394,41.1869578 72.6690978,41.1869578 C75.7140562,41.1869578 78.1826658,38.7235885 78.1826658,35.6850937" id="Fill-38" fill="#00BD88"></path>
                    <path d="M111.785338,35.6850937 C111.785338,32.6465989 109.316728,30.1849262 106.27177,30.1849262 C103.226811,30.1849262 100.759902,32.6465989 100.759902,35.6850937 C100.759902,38.7235885 103.226811,41.1869578 106.27177,41.1869578 C109.316728,41.1869578 111.785338,38.7235885 111.785338,35.6850937" id="Fill-40" fill="#00BD88"></path>
                    <path d="M82.4578486,39.2786948 C82.4578486,39.2786948 83.0954027,43.0958993 91.3836062,43.0958993 C99.6718097,43.0958993 99.0342556,39.2786948 99.0342556,39.2786948" id="Fill-42" fill="#3B356B"></path>
                    <path d="M74.1696452,44.3683008 C74.1696452,44.3683008 76.0823075,50.7303083 82.4578486,50.7303083 C88.8333898,50.7303083 90.7460521,43.0958993 90.7460521,43.0958993 C90.7460521,43.0958993 93.6158957,51.0492569 101.266545,51.0492569 C108.27794,51.0492569 107.640386,45.3217537 107.640386,45.3217537" id="Stroke-44" stroke="#3B356B" stroke-width="1.035" stroke-linecap="round"></path>
                    <path d="M72.6687578,32.0385607 C72.6687578,32.0385607 75.9092328,32.1793731 75.9092328,33.8572465" id="Fill-46" fill="#F7F7F7"></path>
                    <path d="M106.03579,32.4063695 C106.03579,32.4063695 109.276265,32.5454854 109.276265,34.2233589" id="Fill-48" fill="#F7F7F7"></path>
                </g>
            </g>
        </g>
    </g>
</svg>