<?xml version="1.0" encoding="UTF-8"?>
<svg width="31px" height="30px" viewBox="0 0 31 30" version="1.1" xmlns="http://www.w3.org/2000/svg" xmlns:xlink="http://www.w3.org/1999/xlink">
    <!-- Generator: Sketch 50.2 (55047) - http://www.bohemiancoding.com/sketch -->
    <title>insta</title>
    <desc>Created with Sketch.</desc>
    <defs></defs>
    <g id="Page-1" stroke="none" stroke-width="1" fill="none" fill-rule="evenodd">
        <g id="Desktop" transform="translate(-645.000000, -645.000000)" stroke-width="1.5">
            <g id="insta" transform="translate(646.000000, 646.000000)">
                <path d="M1.20327941,3.35913208 C1.03247424,10.9052875 -1.05241124,18.659004 0.690863908,25.9975983 C1.19159124,28.1054897 4.81511173,27.2210746 6.93749893,27.4982421 C11.7333838,28.124548 23.2964848,28.6797335 27.2968303,25.7869988 C28.7680478,24.7231302 26.6047755,22.1728411 26.5770316,20.3417774 C26.4844788,14.2334144 31.8307987,5.5867149 26.9366893,2.01815204 C20.3126263,-2.81181452 10.621573,2.51248946 2.46401491,2.75965817 L1.20327941,3.35913208 Z" id="Path-8" stroke="#DE007D"></path>
                <path d="M1.15239728,11.2 C10.3286632,11.3149235 19.5049291,11.4298469 28.681195,11.5447704" id="Path-9" stroke="#FE0000"></path>
                <path d="M24.8429028,4.886506 C14.4242451,5.25919263 27.4491314,15.6837671 24.9758408,4.48" id="Path-10" stroke="#E2006E"></path>
                <path d="M15.1535628,14.0247737 C5.36843538,14.7205285 7.12348675,22.6450531 13.1275879,23.5144849 C18.9556657,24.3584273 22.0417059,15.8276326 14.569119,13.32" id="Path-11" stroke="#FFA500"></path>
            </g>
        </g>
    </g>
</svg>