<?xml version="1.0" encoding="UTF-8"?>
<svg width="190px" height="35px" viewBox="0 0 190 35" version="1.1" xmlns="http://www.w3.org/2000/svg" xmlns:xlink="http://www.w3.org/1999/xlink">
    <!-- Generator: Sketch 50.2 (55047) - http://www.bohemiancoding.com/sketch -->
    <title>Group 4</title>
    <desc>Created with Sketch.</desc>
    <defs>
        <polygon id="path-1" points="0.038659785 0.17689789 26.7358218 0.17689789 26.7358218 32.4422161 0.038659785 32.4422161"></polygon>
    </defs>
    <g id="Page-1" stroke="none" stroke-width="1" fill="none" fill-rule="evenodd">
        <g id="Desktop" transform="translate(-417.000000, -54.000000)">
            <g id="Group-4" transform="translate(417.000000, 54.000000)">
                <path d="M27.5000293,27.3736403 C24.6233165,22.4792254 21.6183066,16.5884275 17.2039105,12.5649168 C19.5331976,11.2367785 21.831257,9.67481046 24.3324848,8.77635302 C26.1621283,8.11917217 27.396564,6.35055514 26.8510194,4.3864594 C26.3656729,2.63869344 24.2546036,1.232736 22.4148016,1.89364025 C18.8992372,3.15661897 15.7975343,5.24656578 12.5126036,6.98092749 C12.2774551,7.10491685 12.043059,7.23188493 11.8079105,7.357736 C11.9719501,6.68864025 12.134861,6.01954451 12.3004056,5.35119344 C13.4027818,0.890555145 6.44953427,-1.01284911 5.34527685,3.45411897 C3.36325705,11.4732147 1.48206893,19.5172573 0.0696728887,27.6569913 C-0.25991127,29.5540658 0.579851107,31.5006615 2.58820754,32.0468849 C4.32266299,32.5182679 6.69258378,31.4641722 7.02404913,29.5540658 C7.72309863,25.5286934 8.53690061,21.5264062 9.41993031,17.5390126 C9.79541546,17.1804488 10.1848214,16.840502 10.5900293,16.5221509 C15.5194947,19.8065658 18.4157719,26.116619 21.2725442,30.9764062 C23.6052174,34.9451828 29.8409798,31.3558211 27.5000293,27.3736403" id="Fill-1" fill="#009AF0"></path>
                <path d="M42.4709006,18.1444009 C43.4250392,16.3359434 44.3381679,14.4984434 45.2862868,12.6821668 C46.3450194,14.2888158 47.4579303,15.8623264 48.3292967,17.4626456 C48.4289996,17.6450924 48.5279501,17.8297732 48.6269006,18.0129647 C46.5745244,18.0330711 44.5229006,18.0971137 42.4709006,18.1444009 M60.8723066,27.3367413 C59.3195739,23.1147732 57.2517719,19.043603 55.1869798,15.0465285 C54.2136531,13.162486 53.1387422,11.3328051 52.0006234,9.5418477 C50.8937323,7.80003919 49.4629006,6.13940089 49.0148016,4.09674132 C48.3183858,0.924400889 44.0221283,0.829826421 42.4234947,3.24408174 C39.4451976,7.74195408 37.1497719,12.7815817 34.6199501,17.5426988 C32.2695937,21.966103 29.9079501,27.1349328 31.3229798,32.2158903 C32.5547818,36.6381775 39.5151778,34.7604647 38.2777323,30.3180711 C37.8435541,28.7594541 38.1705046,27.0254647 38.8059699,25.3182839 C38.9124452,25.3257307 39.0189204,25.3331775 39.1310392,25.3328051 C42.960762,25.3190285 46.7867224,25.114986 50.6164452,25.1466349 C51.1796729,25.1507307 51.6736729,25.0483371 52.1003264,24.8673796 C52.7625046,26.3094541 53.3776531,27.7664222 53.9179303,29.2341881 C54.5834947,31.0445073 56.3679897,32.2672732 58.3537719,31.7270073 C60.1179501,31.2470605 61.5416333,29.1571137 60.8723066,27.3367413" id="Fill-3" fill="#00CDF8"></path>
                <path d="M79.7099976,1.28728387 C77.465364,1.96196472 74.5574234,1.34611366 72.2243739,1.34611366 L62.2164531,1.34611366 C57.5759382,1.34611366 57.567661,8.48387961 62.2164531,8.48387961 L69.5308887,8.48387961 L69.5308887,28.5798371 C69.5308887,33.1726562 76.743364,33.180103 76.743364,28.5798371 L76.743364,8.62685834 C78.3950471,8.68382642 80.0422155,8.64659238 81.6273046,8.16999663 C86.0559976,6.83813493 84.1684135,-0.0535140041 79.7099976,1.28728387" id="Fill-5" fill="#8D52FF"></path>
                <path d="M126.011455,0.2197094 C123.767198,0.894390251 120.858881,0.278166847 118.526208,0.278166847 L108.517911,0.278166847 C103.877396,0.278166847 103.869495,7.4159328 108.517911,7.4159328 L115.832346,7.4159328 L115.832346,27.5122626 C115.832346,32.1050817 123.044821,32.1125285 123.044821,27.5122626 L123.044821,7.55891153 C124.696881,7.61587961 126.344049,7.57901791 127.929138,7.10204983 C132.357831,5.77056046 130.470247,-1.12108847 126.011455,0.2197094" id="Fill-7" fill="#00DBD7"></path>
                <path d="M157.923328,16.892853 C157.703606,12.7401403 157.384556,8.58631046 157.366873,4.43285302 C157.347685,-0.159221451 150.13521,-0.168157621 150.154774,4.43285302 C150.172081,8.63322536 150.498655,12.83397 150.718754,17.03397 C147.000774,17.4777998 143.206041,17.3135977 139.443665,17.1970551 L139.443665,3.44726791 C139.443665,-1.1451789 132.231566,-1.15299805 132.231566,3.44726791 L132.231566,29.0680126 C132.231566,33.6608317 139.443665,33.6686509 139.443665,29.0680126 L139.443665,24.3188105 C143.274516,24.4092892 147.114398,24.5314168 150.911012,24.1657785 C150.896714,25.9645551 150.824101,27.7625871 150.652536,29.560619 C150.469309,31.4826403 152.441546,33.129502 154.258774,33.129502 C156.361942,33.129502 157.680655,31.487853 157.865012,29.560619 C158.091507,27.1858317 158.149447,24.8102998 158.119348,22.4343956 C159.8222,21.0075871 159.50315,18.2377466 157.923328,16.892853" id="Fill-9" fill="#00CDF8"></path>
                <g id="Group-13" transform="translate(162.910734, 0.110167)">
                    <mask id="mask-2" fill="white">
                        <use xlink:href="#path-1"></use>
                    </mask>
                    <g id="Clip-12"></g>
                    <path d="M7.98985743,8.28867021 C7.9845901,8.29351064 7.97932277,8.29797872 7.97367921,8.30319149 C7.96653069,8.29648936 7.97292673,8.29202128 7.98985743,8.28867021 M8.0256,20.1745213 C12.9573228,20.6984043 17.8664713,20.3227128 22.8034614,19.9853723 C24.9322139,19.8397872 26.7464317,18.267766 26.735897,16.0575532 C26.7264911,14.0465426 24.9066297,12.0198936 22.7669663,12.1662234 C18.1821347,12.479734 13.6213822,12.826383 9.04369901,12.4544149 C9.17538218,11.5325 9.29878812,10.6087234 9.39284752,9.68234043 C9.44251089,9.18787234 9.48088713,8.69489362 9.48991683,8.20117021 C10.1562337,8.17212766 10.8259366,8.15797872 11.4869861,8.13154255 C14.4652832,8.01090426 17.4210059,8.33781915 20.3699564,8.71574468 C22.4896792,8.98755319 24.3110455,6.69914894 24.3020158,4.78829787 C24.291105,2.44218085 22.4595802,1.16952128 20.3334614,0.896595745 C15.7952832,0.315 10.6434614,-0.29712766 6.10866931,0.728670213 C4.14809505,1.1725 1.9715604,2.5918617 1.40645149,4.59579787 C1.1476,5.5143617 1.24128317,6.30111702 1.44971881,7.21744681 C1.49148119,7.39914894 1.55619406,7.57265957 1.60510495,7.75175532 C1.56334257,7.71675532 1.58892673,8.4837766 1.58554059,8.55973404 C1.50878812,10.2479255 1.32367921,11.0573936 1.06332277,12.7787234 C0.727342574,14.9960106 0.388352475,17.217766 0.18969901,19.4521809 C-0.138380198,23.1379787 -0.102637624,27.3740957 2.08217426,30.5520213 C3.31773861,32.3496809 5.51082772,32.9875 7.4936,31.9296809 C10.9719168,30.0746809 15.7516396,31.4221809 19.4395208,31.9170213 C21.5505901,32.2007447 23.6797188,31.3882979 24.2858376,29.1639362 C24.7858574,27.3320213 23.6323129,24.6534043 21.5043129,24.3678191 C17.0045109,23.763883 12.3839366,22.8423404 7.97367921,23.6488298 C7.95336238,23.2802128 7.94771881,22.8814362 7.94546139,22.4379787 C7.94169901,21.6832447 7.97179802,20.927766 8.0256,20.1745213" id="Fill-11" fill="#009AF0" mask="url(#mask-2)"></path>
                </g>
                <path d="M170.769774,2.53045408 C174.117912,2.5278477 177.422031,2.72704983 180.702823,3.42481578 C182.120487,3.72641153 182.714942,1.57056046 181.29314,1.2678477 C177.819338,0.529496634 174.306031,0.293805145 170.759239,0.296411528 C169.30621,0.297528549 169.314863,2.5315711 170.769774,2.53045408" id="Fill-14" fill="#00ADE9"></path>
                <path d="M174.788631,15.2482254 C178.382453,15.1946083 182.204651,14.4171615 185.708928,15.4850339 C187.101008,15.9087573 187.684928,13.7502998 186.299245,13.3280658 C182.576374,12.1935445 178.590512,12.9575871 174.778473,13.0141828 C173.326572,13.0357785 173.333344,15.2698211 174.788631,15.2482254" id="Fill-16" fill="#00ADE9"></path>
                <path d="M172.530829,26.3613583 C175.641562,26.3338051 178.765839,26.1301349 181.802829,26.9321562 C183.208077,27.3033796 183.796889,25.1460392 182.39277,24.7751881 C179.155621,23.9202945 175.837206,24.0979009 172.520295,24.1273158 C171.068017,24.1403477 171.075542,26.3743903 172.530829,26.3613583" id="Fill-18" fill="#00ADE9"></path>
                <path d="M167.466671,32.9354754 C172.245641,32.9123903 176.980968,32.4261137 181.698988,31.6966988 C183.130196,31.4755285 182.522572,29.3222839 181.098889,29.5427094 C176.579522,30.24122 172.043225,30.67872 167.466671,30.7014328 C166.014394,30.7088796 166.011384,32.9429222 167.466671,32.9354754" id="Fill-20" fill="#0B7FB2"></path>
                <path d="M140.271764,19.5086934 L149.944833,19.5086934 C151.397111,19.5086934 151.399744,17.2746509 149.944833,17.2746509 L140.271764,17.2746509 C138.819111,17.2746509 138.816853,19.5086934 140.271764,19.5086934" id="Fill-22" fill="#4DD1FF"></path>
                <path d="M135.918582,3.3485977 L135.918582,16.1120551 C135.918582,17.5500339 138.176008,17.5518956 138.176008,16.1120551 L138.176008,3.3485977 C138.176008,1.91099132 135.918582,1.90875727 135.918582,3.3485977" id="Fill-24" fill="#4DD1FF"></path>
                <path d="M152.500954,4.71612961 C152.465964,8.00464025 151.94036,11.3214488 152.541212,14.5857573 C152.801568,15.9984168 154.97735,15.3996934 154.718122,13.9918743 C154.159786,10.9591615 154.726023,7.77304451 154.75838,4.71612961 C154.773806,3.27815089 152.51638,3.27703387 152.500954,4.71612961" id="Fill-26" fill="#4DD1FF"></path>
                <path d="M107.567384,4.46561897 C112.956612,4.4373211 118.310473,3.80397004 123.689166,3.55375727 C125.135423,3.48636366 125.144077,1.25194876 123.689166,1.31971472 C118.310473,1.56992749 112.956612,2.20327855 107.567384,2.23157642 C106.115483,2.23902323 106.112097,4.47343812 107.567384,4.46561897" id="Fill-28" fill="#66FFFF"></path>
                <path d="M120.088647,10.6532466 L120.088647,22.3287254 C120.088647,23.7667041 122.346073,23.7689381 122.346073,22.3287254 L122.346073,10.6532466 C122.346073,9.21601259 120.088647,9.21340621 120.088647,10.6532466" id="Fill-30" fill="#66FFFF"></path>
                <path d="M117.127619,15.3685658 L117.127619,27.942502 C117.127619,29.379736 119.385045,29.3823424 119.385045,27.942502 L119.385045,15.3685658 C119.385045,13.9309594 117.127619,13.9287254 117.127619,15.3685658" id="Fill-32" fill="#00B7D7"></path>
                <path d="M64.0431996,3.91183706 L75.1602689,3.91183706 C76.6129224,3.91183706 76.6151798,1.67779451 75.1602689,1.67779451 L64.0431996,1.67779451 C62.5909224,1.67779451 62.5882887,3.91183706 64.0431996,3.91183706" id="Fill-34" fill="#A08DFF"></path>
                <path d="M74.9390412,12.0004115 L74.9390412,19.6345073 C74.9390412,21.0721137 77.1964669,21.0743477 77.1964669,19.6345073 L77.1964669,12.0004115 C77.1964669,10.5631775 74.9390412,10.5605711 74.9390412,12.0004115" id="Fill-36" fill="#A08DFF"></path>
                <path d="M70.766265,17.1648105 L70.766265,28.6157679 C70.766265,30.0533743 73.0236907,30.0556083 73.0236907,28.6157679 L73.0236907,17.1648105 C73.0236907,15.7272041 70.766265,15.72497 70.766265,17.1648105" id="Fill-38" fill="#5A52FF"></path>
                <path d="M44.305059,2.56720408 C44.3329006,7.12204451 47.8134749,10.9035339 50.2688016,14.4560339 C53.4096333,19.0015658 56.4567818,24.086619 58.1344254,29.3537466 C58.5697323,30.720236 60.7496531,30.1367785 60.3113363,28.760236 C58.6897521,23.6692254 55.8457719,19.0052892 52.999158,14.5048105 C50.7259303,10.910236 46.5899501,7.07103387 46.5624848,2.56720408 C46.5538313,1.13034238 44.2964056,1.12699132 44.305059,2.56720408" id="Fill-40" fill="#4DD1FF"></path>
                <path d="M38.8569877,32.267869 C38.8513442,29.817869 38.7967897,27.3619115 39.2223145,24.93872 C39.4691264,23.5327626 37.2940967,22.9288264 37.0454036,24.3452094 C36.58376,26.9746775 36.5935422,29.6071243 36.599562,32.267869 C36.6025719,33.705103 38.8599976,33.7077094 38.8569877,32.267869" id="Fill-42" fill="#4DD1FF"></path>
                <path d="M12.1779026,8.50063493 C16.931665,8.8789328 21.2994075,6.55664557 25.320259,4.33451791 C26.5885561,3.63340089 25.451566,1.70281578 24.1806353,2.40542217 C20.4889917,4.4458477 16.5452689,6.61435834 12.1779026,6.26659238 C10.729764,6.15116685 10.7372887,8.38595408 12.1779026,8.50063493" id="Fill-44" fill="#00ADE9"></path>
                <path d="M15.841065,14.19372 C20.8818967,18.60372 21.9364907,25.7586137 26.3855006,30.6493051 C27.3595798,31.7201562 28.9518174,30.13622 27.9818768,29.0698371 C23.5268471,24.1720711 22.529065,17.0685605 17.437065,12.614252 C16.3519957,11.6651562 14.7499759,13.2394115 15.841065,14.19372" id="Fill-46" fill="#00ADE9"></path>
                <path d="M6.16250259,3.89765089 C6.62151249,12.1394062 3.1435719,20.0989275 1.0656115,27.931853 C0.696522394,29.3236615 2.87343328,29.9175445 3.24214616,28.525736 C5.37240358,20.49547 8.89022536,12.3497785 8.41992833,3.89765089 C8.3405422,2.46786366 6.08236398,2.45855514 6.16250259,3.89765089" id="Fill-48" fill="#0B7FB2"></path>
                <path d="M40.6562313,10.797603 C40.9241125,13.3991456 39.6212016,15.9761137 38.4812016,18.2399434 C37.321261,20.542869 35.9656768,22.7560605 34.9393006,25.1230285 C34.3723105,26.4295711 36.3163303,27.5693051 36.8882115,26.2504754 C38.955261,21.4856349 43.4780135,16.275103 42.913657,10.797603 C42.7676768,9.3808477 40.5087462,9.36595408 40.6562313,10.797603" id="Fill-50" fill="#11808E"></path>
                <path d="M166.016124,3.95547536 C166.008976,12.0806881 165.788501,20.2044115 165.781352,28.329252 C165.780223,29.7668583 168.037649,29.7690924 168.038778,28.329252 C168.045926,20.2044115 168.266402,12.0806881 168.27355,3.95547536 C168.274679,2.51824132 166.017253,2.51563493 166.016124,3.95547536" id="Fill-52" fill="#0B7FB2"></path>
                <path d="M132.942843,4.41978387 C132.928546,8.53004983 132.68813,12.6436668 132.856685,16.7531881 C133.012071,20.5402626 134.112942,24.3109541 133.880804,28.0972839 C133.79314,29.5330285 136.050942,29.5281881 136.138229,28.0972839 C136.37112,24.3035073 135.269497,20.541752 135.114111,16.7531881 C134.945556,12.6436668 135.185972,8.53004983 135.200269,4.41978387 C135.20516,2.98217749 132.947734,2.98031578 132.942843,4.41978387" id="Fill-54" fill="#11808E"></path>
                <path d="M153.349671,19.7406615 L153.349671,29.2580551 C153.349671,30.6952892 155.607097,30.6978956 155.607097,29.2580551 L155.607097,19.7406615 C155.607097,18.3030551 153.349671,18.3008211 153.349671,19.7406615" id="Fill-56" fill="#11808E"></path>
            </g>
        </g>
    </g>
</svg>