<?xml version="1.0" encoding="UTF-8"?>
<svg width="42px" height="32px" viewBox="0 0 42 32" version="1.1" xmlns="http://www.w3.org/2000/svg" xmlns:xlink="http://www.w3.org/1999/xlink">
    <!-- Generator: Sketch 50.2 (55047) - http://www.bohemiancoding.com/sketch -->
    <title>twitter</title>
    <desc>Created with Sketch.</desc>
    <defs></defs>
    <g id="Page-1" stroke="none" stroke-width="1" fill="none" fill-rule="evenodd">
        <g id="Desktop" transform="translate(-548.000000, -646.000000)" stroke="#73CEF4" stroke-width="1.5">
            <g id="twitter" transform="translate(549.000000, 647.000000)">
                <path d="M22.7144399,11.7638086 C-11.103581,7.69369807 51.8837429,11.1460093 5.51456464,0.709638495 C0.390094421,-0.443732628 8.61876018,11.5897044 7.96992211,11.9658119 C5.80559993,13.2203897 0.812895467,8.88553506 0.492034247,11.3699022 C0.158227511,13.9545041 5.54598919,12.9595678 7.64226615,14.5027894 C8.31612392,14.998865 4.4214592,14.3906579 5.1511644,14.799826 L2.81587107,16.9860524 C4.976947,18.1978341 8.30423123,16.0640181 10.2167712,17.6402676 C11.2994456,18.5325704 6.26038665,19.8304489 7.34577189,20.7194402 C8.78191801,21.8957243 11.0485609,19.2692912 12.8316032,19.7819614 C13.6106953,20.0059702 11.1542493,21.6517272 11.8756727,22.0219022 C13.0952839,22.6477063 16.8543316,20.356242 15.9353987,21.3745736 C12.9459063,24.6874319 6.12960556,25.0220066 5.22265297,29.3945627 C4.68284016,31.9970821 17.3147168,28.0374667 18.8022737,26.9636369 C24.9797449,22.5042764 30.5247046,17.5455226 32.5514506,9.81906801 C33.046142,7.93318302 32.9524232,5.45971153 31.6124758,4.04544713 C25.3071174,-2.60962254 21.658705,7.46092616 21.3987753,10.7413966 L22.7144399,11.7638086 Z" id="Path-2"></path>
                <path d="M32.1536809,8.56986139 C41.479566,2.30375466 42.3221325,3.30583445 32.0753184,4.63997949" id="Path-3"></path>
            </g>
        </g>
    </g>
</svg>