<?xml version="1.0" encoding="UTF-8"?>
<svg width="443px" height="56px" viewBox="0 0 443 56" version="1.1" xmlns="http://www.w3.org/2000/svg" xmlns:xlink="http://www.w3.org/1999/xlink">
    <!-- Generator: Sketch 50.2 (55047) - http://www.bohemiancoding.com/sketch -->
    <title>Group 3</title>
    <desc>Created with Sketch.</desc>
    <defs>
        <polygon id="path-1" points="0.495485255 0.296560499 38.2992271 0.296560499 38.2992271 46.1852903 0.495485255 46.1852903"></polygon>
        <polygon id="path-3" points="0.181929066 0.474485662 32.0613326 0.474485662 32.0613326 46.9189189 0.181929066 46.9189189"></polygon>
    </defs>
    <g id="Page-1" stroke="none" stroke-width="1" fill="none" fill-rule="evenodd">
        <g id="Desktop" transform="translate(-291.000000, -101.000000)">
            <g id="Group-3" transform="translate(291.000000, 101.000000)">
                <path d="M102.064197,52.0689586 C106.97524,52.0432288 111.788673,51.5513369 116.567066,50.3904721 C118.445686,49.9344 117.650289,47.0143279 115.768665,47.4719135 C111.244559,48.5702198 106.712443,49.0177153 102.064197,49.0419315 C100.132016,49.0525261 100.128012,52.0795532 102.064197,52.0689586" id="Fill-1" fill="#161616"></path>
                <path d="M19.3053693,41.0256354 C19.3218879,40.9943561 19.3374054,40.9666084 19.3519218,40.9459237 C19.3769501,40.9237255 19.4024789,40.9010228 19.4305105,40.8757976 C19.4435252,40.8879057 19.4089862,40.9534913 19.3053693,41.0256354 M19.275836,41.033203 C19.2743343,41.0377435 19.2738337,41.0422841 19.272332,41.0468246 L19.2603184,41.0543922 C19.2648235,41.0483381 19.272332,41.0387525 19.275836,41.033203 M51.3009817,28.5714372 C50.3544134,25.1503922 49.1120111,21.8226805 47.9647162,18.4667165 C47.4411252,16.9350408 46.9250427,15.3968066 46.4990619,13.8343561 C46.3038416,13.1169507 46.1331489,12.3960138 45.9804766,11.6690228 C45.9514439,11.5317976 45.9314213,11.3915453 45.9073941,11.2517976 C45.9038902,11.1599778 45.8873715,10.9405183 45.875358,10.6923021 C45.5705139,4.49547326 35.9731817,4.50556335 36.280028,10.737203 C36.5328134,15.8750769 38.6346857,20.7677615 40.2805433,25.5681219 C41.176054,28.1799417 42.0490393,30.8139597 42.6457128,33.5135634 C42.7733569,34.091221 42.8904891,34.6719057 42.9835941,35.2561219 C43.0141286,35.5356174 43.0441625,35.8181399 43.0571772,36.0976354 C43.0812043,36.613239 43.0721941,37.1232931 43.0787015,37.6378877 C43.0822054,37.9249507 43.0857094,38.0475453 43.0872111,38.0868967 C43.0832066,38.0056715 43.0566766,37.6636174 42.9725817,38.34823 C42.9445501,38.5777796 42.9275309,38.7049147 42.9185207,38.7669688 C42.9150167,38.7710048 42.9120134,38.7750408 42.9080088,38.7790769 C42.9130145,38.6539597 42.9425478,38.2624643 42.8574518,38.7457796 C42.8494427,38.791185 42.8459388,38.8184282 42.8409331,38.853239 C42.7613433,38.9364823 42.6692393,39.0247706 42.5981591,39.0878336 C42.5325851,39.1130588 42.4675117,39.1382841 42.4114484,39.1609868 C42.1596642,39.2119417 41.1515263,39.4858877 41.3617636,39.4515814 C40.8191512,39.5408787 38.6336845,39.5716534 38.0114823,39.4974913 C37.9399015,39.4889147 36.9818201,39.30023 36.5863738,39.1927706 C36.2670134,39.1054913 35.948654,39.0071129 35.6353004,38.8976354 C35.4901365,38.847185 35.4005354,38.8169147 35.3479761,38.7997615 C35.3785105,38.8053111 35.3820145,38.7937075 35.2383523,38.7190408 C33.4162958,37.7685543 32.350593,36.7353291 31.4590868,35.3418877 C30.8243704,34.3485183 30.2607343,33.3183201 29.7741851,32.2417075 C29.7681783,32.2285904 29.7656755,32.2230408 29.7606698,32.2104282 C29.6510461,31.9425363 29.5454269,31.6711129 29.4478167,31.3986805 C29.2290698,30.7942841 29.0203343,30.1863561 28.8291184,29.5723742 C27.3995049,24.9763381 26.9224665,20.201203 25.8792891,15.5209147 C24.8746552,11.014176 17.4472721,10.846176 16.6263456,15.5637976 C15.7353399,20.6855273 17.4908213,25.9828246 18.5360009,30.9627886 C19.118158,33.7370588 19.5166077,35.5785003 19.5851851,38.123221 C19.6002021,38.683221 19.5846845,39.238176 19.5606574,39.7976715 C19.5586552,39.8466084 19.5571535,39.8869688 19.5566529,39.9197615 C19.5241162,40.0953291 19.4915795,40.2719057 19.4500326,40.4464643 C19.4119896,40.6043742 19.3579286,40.7627886 19.3093738,40.9217075 C19.2092608,40.9661039 19.04908,41.0256354 18.8048043,41.0786084 C18.5480145,41.1351129 17.7726393,41.2627525 17.8191919,41.2884823 C17.5533919,41.2975634 17.2870913,41.2985724 17.0202902,41.2905003 C16.8070495,41.2405543 16.5953105,41.1880859 16.3870755,41.1184643 C16.2644371,41.0533832 16.1387953,40.9923381 16.0206619,40.918176 C15.8955207,40.8394733 15.7728823,40.757239 15.6502439,40.6765183 C15.3469015,40.3844102 15.0545715,40.0877615 14.7577365,39.7890949 C14.7216958,39.7532751 14.6676348,39.6907165 14.6170778,39.629167 C14.5159636,39.4894192 14.4113456,39.3516895 14.3207433,39.2068967 C12.8956348,36.9305724 12.7029173,36.4195093 11.9465636,34.0110048 C11.2728032,31.8668606 10.786254,29.6636895 10.4093286,27.4484102 C10.3767919,27.2587165 10.2020947,26.0978516 10.1830732,26.0146084 C10.1215037,25.5398697 10.0629376,25.0646264 10.0113795,24.5888787 C9.89825177,23.5531309 9.80664838,22.5153652 9.73807098,21.4760859 C9.63795798,19.9645904 9.56737832,18.4430048 9.61743482,16.9274733 C9.82366759,10.7028967 0.227837081,10.7573832 0.0221048773,16.9723742 C-0.115049925,21.1098156 0.405037081,25.3133471 1.05627211,29.3877255 C1.87369471,34.5028967 3.23873539,39.9586084 6.17054443,44.2928066 C9.53534217,49.267221 14.7672473,51.9456354 20.7494992,50.5643021 C24.1613501,49.7767706 26.3748484,47.8409868 27.6718122,45.3103922 C28.3370631,45.8275093 29.0448619,46.3143561 29.8132292,46.7588246 C35.2909117,49.9286264 44.4302269,50.7095994 49.3102348,45.9803742 C53.9975252,41.4388246 52.8687512,34.2385363 51.3009817,28.5714372" id="Fill-3" fill="#00CDF8"></path>
                <g id="Group-7" transform="translate(404.456497, 0.504505)">
                    <mask id="mask-2" fill="white">
                        <use xlink:href="#path-1"></use>
                    </mask>
                    <g id="Clip-6"></g>
                    <path d="M27.8963858,14.6452613 C27.9189112,14.4863423 27.9279214,14.3844324 27.9304242,14.3148108 C27.9379327,14.336 27.9449406,14.3551712 27.9514479,14.3718198 C27.9339281,14.4268108 27.9154072,14.5120721 27.8963858,14.6452613 M27.6040558,15.1896216 C27.4603937,15.347027 27.3137281,15.5003964 27.1575519,15.6456937 C27.1089971,15.6103784 25.9461846,16.3494775 26.1474118,16.2616937 C25.8045247,16.4115315 25.4250965,16.5043604 25.0646897,16.6027387 C24.1791903,16.8438919 23.2691632,16.9982703 22.366144,17.1566847 C22.2019586,17.1849369 21.950675,17.2217658 21.7759779,17.246991 C21.1938208,17.3201441 20.6106626,17.3862342 20.0260027,17.4356757 C19.8773349,17.4482883 19.7301688,17.4548468 19.5825021,17.4649369 C19.1685349,17.1531532 18.7430547,16.858018 18.3040592,16.5820541 C18.7115191,15.4166486 19.1369993,14.3102703 19.5905112,13.3219459 C19.8968569,12.656 20.2417462,12.0016577 20.6411971,11.3871712 C20.6682276,11.3478198 20.6892513,11.316036 20.7117767,11.2827387 C20.8464287,11.1303784 20.9940954,10.9926486 21.1402603,10.8518919 C21.1447654,10.8498739 21.1467677,10.8483604 21.1507722,10.8453333 C21.1858118,10.8261622 21.2123417,10.810018 21.2378705,10.7953874 C21.2744118,10.7852973 21.310953,10.7762162 21.3474942,10.7666306 C21.4280852,10.7641081 21.5407123,10.7585586 21.6913824,10.7494775 C21.9036219,10.7646126 22.0447812,10.7721802 22.1238705,10.7741982 C22.4252106,10.8332252 22.7270513,10.8942703 23.0243869,10.974991 C23.6926411,11.1510631 24.3779146,11.3609369 25.0136321,11.6333694 C25.5857779,11.8785586 26.1859553,12.1726847 26.6975327,12.538955 C26.4837914,12.4209009 27.5169575,13.4576577 27.4543869,13.2704865 C27.5615078,13.4364685 27.6626219,13.6054775 27.7567281,13.779027 C27.7817564,13.8582342 27.8187982,13.9712432 27.8683541,14.1200721 C27.8798671,14.1584144 27.8888773,14.1866667 27.8988886,14.2184505 C27.8202999,14.3122883 27.632588,14.9963964 27.6741349,15.066018 C27.6390954,15.1235315 27.6165699,15.1633874 27.6040558,15.1896216 M31.5099643,3.08605405 C24.7648513,-0.905585586 16.3728795,-1.14018018 11.6810841,5.87344144 C9.94662644,8.4670991 8.86991119,11.5576937 7.91132927,14.6286126 C6.4046287,15.6129009 5.50361175,17.531027 5.28386373,19.2988108 C5.14720949,20.3986306 5.22930215,21.3682883 5.47758237,22.2264505 C3.9153191,26.9415495 2.35355638,31.6561441 0.791793672,36.3707387 C-1.35613062,42.8521081 8.80583887,45.5824865 10.9407485,39.1404685 C12.1756423,35.4131892 13.4100355,31.6864144 14.6444287,27.9601441 C14.8907067,27.9904144 15.1359835,28.0181622 15.3792581,28.0408649 C15.8943394,28.7703784 16.3598649,29.5821261 16.8944682,30.5966847 C18.5383236,33.7185586 19.3372253,37.6950631 19.3747677,41.0929009 C19.4493519,47.9077477 29.9612163,47.8739459 29.8866321,41.043964 C29.836075,36.4615495 28.8389496,31.4962162 26.8747327,27.0792793 C30.0838547,26.2942703 33.1002592,24.925045 35.2652027,22.4489369 C40.7513948,16.1749189 38.3777157,7.15084685 31.5099643,3.08605405" id="Fill-5" fill="#00CDF8" mask="url(#mask-2)"></path>
                </g>
                <path d="M86.8512494,33.9025397 C89.683446,33.7052785 92.0966698,31.5752605 92.0826539,28.5810262 C92.0706404,25.8561974 89.6494076,23.1096749 86.8026946,23.3079451 C80.7028099,23.7327379 74.6344607,24.2019271 68.5445873,23.6989361 C68.719785,22.4492785 68.8839703,21.1976028 69.008611,19.9423956 C69.0751861,19.2729181 69.1262438,18.6049542 69.1382573,17.9354767 C70.0247579,17.8956208 70.915263,17.8774587 71.7952562,17.8411343 C75.7577285,17.6781794 79.6901669,18.1206298 83.6130946,18.6327019 C86.4337782,19.0014947 88.8570133,15.90081 88.8449997,13.3116929 C88.8304833,10.1323055 86.393733,8.40790911 83.5650404,8.03810731 C77.5272257,7.25007127 70.6729895,6.42066587 64.6396799,7.81108028 C62.0312359,8.41244965 59.1354675,10.3356208 58.3836189,13.0508641 C58.0392302,14.2954767 58.1638709,15.3614947 58.4411839,16.6025758 C58.496246,16.8492785 58.5828438,17.0838731 58.6479172,17.3265397 C58.5923545,17.2791163 58.6258924,18.3183956 58.6213873,18.42081 C58.519272,20.7087379 58.2734946,21.8050262 57.9271037,24.1378551 C57.4800991,27.1421794 57.0290901,30.1530623 56.7647918,33.1800893 C56.3282991,38.1741794 56.3758528,43.9144316 59.2826336,48.2198731 C60.926489,50.6556208 63.8447828,51.519837 66.4822596,50.0870442 C71.1099828,47.5730983 77.4691602,49.3989001 82.375698,50.0693866 C85.1843681,50.453819 88.0170652,49.3529902 88.8234754,46.3395848 C89.4887263,43.8569181 87.9539941,40.2275127 85.1227986,39.8405578 C79.1360415,39.021747 72.9886031,37.7736028 67.1209805,38.8668641 C67.09395,38.3669001 67.0859409,37.8265758 67.0834381,37.2262154 C67.0784325,36.2030803 67.1184777,35.1794406 67.1900585,34.1593325 C73.7514641,34.8686659 80.2828359,34.3596208 86.8512494,33.9025397" id="Fill-8" fill="#8D52FF"></path>
                <path d="M378.494008,21.0810623 C378.486499,21.0876208 378.479491,21.0936749 378.471983,21.1007379 C378.462972,21.0921614 378.471482,21.0861073 378.494008,21.0810623 M378.541061,37.1858551 C385.102466,37.8956929 391.633838,37.3866479 398.202752,36.9295668 C401.034949,36.7323055 403.448172,34.6022875 403.434157,31.6075488 C403.421643,28.8832244 401.00091,26.1367019 398.153697,26.3349722 C392.053812,26.759765 385.985963,27.2294587 379.89609,26.7259632 C380.070787,25.4763055 380.235473,24.2246298 380.360114,22.9694226 C380.426689,22.2999451 380.477246,21.6314767 380.48926,20.9625037 C381.376261,20.9231524 382.266766,20.9039812 383.146258,20.8681614 C387.108731,20.7047019 391.041169,21.1476569 394.964597,21.6597289 C397.78478,22.0280172 400.208015,18.927837 400.196002,16.3382154 C400.181485,13.1593325 397.744735,11.4349361 394.916043,11.0651343 C388.878228,10.2770983 382.023992,9.4476929 375.991183,10.8381073 C373.382739,11.4394767 370.48647,13.3621433 369.735122,16.0773866 C369.390232,17.3225037 369.515374,18.3880172 369.792687,19.6296028 C369.847749,19.8763055 369.933846,20.1109001 369.998919,20.3535668 C369.943357,20.3061433 369.977395,21.3454226 369.97289,21.4483415 C369.870775,23.735765 369.624497,24.8325578 369.278106,27.1648821 C368.831602,30.1692064 368.380092,33.1795848 368.116295,36.2071163 C367.679802,41.2012064 367.726855,46.9409542 370.633636,51.2469001 C372.277491,53.6826479 375.195284,54.5468641 377.833262,53.1140713 C382.460985,50.6001253 388.820162,52.4259271 393.7267,53.0964136 C396.535871,53.480846 399.368067,52.3800172 400.174978,49.3666118 C400.839728,46.8844497 399.304996,43.2545397 396.474301,42.8675848 C390.487044,42.0492785 384.339605,40.8006298 378.472483,41.8938911 C378.444952,41.3939271 378.437444,40.8536028 378.43444,40.2527379 C378.429435,39.2301073 378.46948,38.2064677 378.541061,37.1858551" id="Fill-10" fill="#009AF0"></path>
                <path d="M190.782053,15.5317676 C190.775045,15.5378216 190.768037,15.5443802 190.760529,15.5509387 C190.751518,15.5423622 190.759527,15.5363081 190.782053,15.5317676 M208.762347,37.3182901 C202.77559,36.4999838 196.628151,35.2513351 190.760529,36.3440919 C190.733498,35.8446324 190.725489,35.3038036 190.722986,34.7034433 C190.709471,31.926146 191.022825,29.1453171 191.414767,26.4245243 C191.846254,23.4267586 192.348821,20.4350469 192.64866,17.4196234 C192.714734,16.750146 192.765792,16.082182 192.777805,15.413209 C193.664306,15.3733532 194.554811,15.3546865 195.434804,15.3183622 C199.397277,15.1554072 203.329715,15.5983622 207.252643,16.1099297 C210.073326,16.4787225 212.496561,13.3780378 212.484548,10.7889207 C212.470031,7.61003785 210.033281,5.88513695 207.204588,5.51583965 C201.166774,4.72729911 194.312538,3.89839821 188.279228,5.28830812 C185.670784,5.88967749 182.775016,7.81284866 182.023167,10.5280919 C181.678778,11.7727045 181.803419,12.8387225 182.080732,14.0803081 C182.136295,14.3265063 182.222392,14.5616054 182.287465,14.8042721 C182.231903,14.7568487 182.26544,15.7956234 182.261436,15.8990469 C182.15882,18.1864703 181.913043,19.2827586 181.566652,21.6155874 C181.119647,24.6194072 180.668638,27.6302901 180.40434,30.6573171 C179.967847,35.6519117 180.015401,41.3916595 182.922182,45.6976054 C184.566037,48.1333532 187.484331,48.9975694 190.121808,47.5642721 C194.749531,45.0508306 201.108708,46.8766324 206.015246,47.5471189 C208.823916,47.9310469 211.656613,46.830218 212.463023,43.8168126 C213.128274,41.3346505 211.593542,37.7047405 208.762347,37.3182901" id="Fill-12" fill="#6374F9"></path>
                <path d="M189.988478,31.9629227 C196.814683,32.8049407 203.605347,32.2691569 210.436558,31.7939137 C213.268754,31.5961479 215.681978,29.4666344 215.667962,26.4718957 C215.655448,23.7470669 213.234215,21.0010488 210.388003,21.1993191 C203.556793,21.6745623 196.766629,22.2103461 189.939924,21.3683281 C187.117738,21.0207245 184.696506,24.0860939 184.708519,26.6903461 C184.722535,29.8525804 187.157783,31.6138056 189.988478,31.9629227" id="Fill-14" fill="#6374F9"></path>
                <g id="Group-18" transform="translate(95.607910, 9.081081)">
                    <mask id="mask-4" fill="white">
                        <use xlink:href="#path-3"></use>
                    </mask>
                    <g id="Clip-17"></g>
                    <path d="M17.5287341,35.8861622 C16.0000087,36.255964 14.9633386,36.3820901 12.905516,36.3412252 C12.6672471,36.3366847 12.4299793,36.3215495 12.1927115,36.3124685 C12.1421545,34.9578739 12.0795838,33.6047928 12.0070019,32.2512072 C14.0828449,32.4620901 16.198733,32.4555315 18.2565556,32.5766126 C19.0018968,32.6205045 19.7497409,32.6699459 20.4915782,32.7587387 C20.494081,32.7592432 20.4955827,32.7592432 20.4985861,32.7597477 C20.5546494,32.7738739 20.6267307,32.7915315 20.7308482,32.8157477 C20.8419737,32.8414775 20.9546008,32.8697297 21.0662268,32.896973 C20.8539872,33.3358919 20.5961963,33.8197117 20.5906901,33.8277838 C19.623098,35.1556396 18.6750279,35.6086847 17.5287341,35.8861622 M18.968359,10.9025946 C19.6321081,11.0156036 19.9965194,11.1215495 20.4935805,11.6502703 C21.8235816,13.0664144 21.5482708,14.4290811 20.4965838,16.1696216 C19.3262629,18.1054054 17.2889635,19.8383784 15.4058381,20.5149189 C14.6324652,20.7923964 13.9381816,21.2181982 13.3565251,21.7479279 C13.2674245,21.7413694 13.1788245,21.7388468 13.0902245,21.7317838 C13.0016245,21.7252252 12.6071793,21.6747748 12.3353725,21.6434955 C12.0705737,21.5834595 11.6841375,21.5012252 11.611055,21.4820541 C11.5114426,21.4558198 11.4163353,21.4406847 11.3187251,21.42 C11.1169974,18.342018 10.9332901,15.2625225 10.8166584,12.18 C12.5916618,11.6941622 14.3736731,11.1926847 16.1847172,10.9474955 C16.1096324,10.9701982 17.2278946,10.8748468 17.3440256,10.8703063 C17.7039319,10.8576937 19.0719759,10.9202523 18.968359,10.9025946 M21.649385,31.108 C21.668907,31.1125405 21.634368,31.2633874 21.5813081,31.4571171 C21.5743002,31.2512793 21.588316,31.0943784 21.649385,31.108 M27.5770754,24.1594595 C31.7277601,19.2773694 33.6178934,12.7283964 29.9112098,6.71873874 C24.6177353,-1.8643964 15.1495488,0.27218018 6.99834881,2.25437838 C3.95691605,1.41891892 0.148117175,3.06209009 0.182155593,7.18086486 C0.274259548,18.5332252 1.69636463,29.822018 1.79747876,41.1738739 C1.8255104,44.2962523 4.23773299,46.1089369 7.07793864,46.446955 C12.1666821,47.0528649 17.4766754,47.408036 22.3126336,45.3668108 C27.4859725,43.1828108 32.1902821,37.5616216 32.0586336,31.6251171 C31.9825477,28.1884324 30.1609918,25.7027387 27.5770754,24.1594595" id="Fill-16" fill="#00DBD7" mask="url(#mask-4)"></path>
                </g>
                <path d="M167.416162,21.8086533 C166.733892,26.5989236 163.486226,31.1505632 159.235929,33.6574461 C159.91069,26.4647254 159.657405,19.2018785 159.454676,11.9582029 C161.147086,12.763392 162.800452,13.6780587 164.209042,14.779392 C166.569206,16.6248695 167.852154,18.7508515 167.416162,21.8086533 M157.954482,0.873229886 C157.657147,0.751139796 157.352803,0.676473129 157.046958,0.643175832 C154.200746,-0.945508853 149.681145,0.410599255 149.711679,4.69283349 C149.792771,16.1188515 151.171327,27.9076083 148.774621,39.1822749 C148.174945,42.0034641 150.150675,45.5788875 153.429375,45.2812299 C165.346325,44.2010857 175.532823,34.5822029 176.923893,22.4680407 C178.311959,10.3841488 167.342078,4.74429295 157.954482,0.873229886" id="Fill-19" fill="#009AF0"></path>
                <path d="M252.384378,16.0117198 C250.262984,9.30080092 245.104161,4.55391804 238.004148,4.07110723 C231.987858,3.66195408 225.934525,6.86707119 222.635302,11.8914316 C218.981678,17.4556117 219.268502,26.3808009 224.300681,31.0525126 C227.238998,33.780873 231.1394,34.4251252 234.9492,34.8756478 C237.737847,35.2050892 240.635117,35.2303144 243.032824,37.2594316 C243.739121,37.8572694 244.116046,38.3557198 244.373337,39.210855 C244.373337,39.210855 244.929464,40.1457018 243.960371,40.2400442 C238.096752,40.8146748 230.719926,39.8081883 225.078059,37.8875397 C219.214941,35.8917198 216.744152,45.2417018 222.570228,47.2254135 C227.284048,48.8302424 232.243146,49.4169811 237.205747,49.2015577 C240.811316,49.0451613 245.374467,49.1152874 248.82436,47.8903505 C253.250856,46.3188189 254.560835,41.6022063 253.752923,37.3053415 C252.928493,32.9186748 249.496119,29.4042964 245.589209,27.5446928 C242.150828,25.9090892 238.614337,25.7037559 234.90465,25.2042964 C234.925173,25.2073234 233.632714,24.992909 233.303843,24.9202604 C232.912401,24.8344946 231.660488,24.4863865 231.842694,24.5635757 C230.755967,24.1029631 230.656355,24.0535216 230.246893,22.9819541 C229.71279,21.5844766 229.73932,21.3261703 229.784371,19.721846 C229.811401,18.7466388 229.817408,19.4035036 229.777863,19.6249811 C229.830422,19.3293415 229.896998,19.0326928 229.975586,18.7441162 C230.053674,18.4595757 230.140272,18.1730171 230.243889,17.8970532 C230.003618,18.5418099 230.203343,17.9691973 230.390054,17.6604406 C230.535218,17.4197919 231.279558,16.2907108 231.081835,16.534891 C230.873099,16.7926928 231.829178,15.7952874 232.01689,15.6116478 C232.110996,15.5188189 232.810286,14.970927 232.357775,15.3089451 C231.940304,15.6217379 232.523963,15.2140982 232.567512,15.1863505 C232.861844,15.0022063 234.531729,14.126891 233.696286,14.4810532 C234.29346,14.2277919 234.912659,14.0835036 235.527352,13.8897739 C235.664507,13.846891 236.552009,13.6698099 235.936815,13.7757559 C235.296091,13.8857379 236.435878,13.7303505 236.566525,13.7258099 C236.920925,13.7137018 238.389082,13.7742424 238.040689,13.728837 C237.720328,13.6869631 239.093377,13.9916838 239.462294,14.1097379 C240.334778,14.3892334 239.677036,14.1960081 239.497834,14.1092334 C239.889276,14.298927 240.257191,14.516873 240.627108,14.745918 C240.768768,14.8337018 241.311881,15.2943144 240.714207,14.7898099 C241.005035,15.0349991 241.274339,15.3054135 241.536134,15.580873 C242.154332,16.2301703 242.757513,17.4041523 243.143448,18.6260622 C245.011557,24.5358279 254.267003,21.965882 252.384378,16.0117198" id="Fill-21" fill="#00DBD7"></path>
                <path d="M284.281468,36.8980077 C281.688541,37.208278 279.090609,37.3682059 276.489173,37.4469086 C275.865969,30.2309807 275.557621,22.9958816 275.447997,15.7537194 C277.485297,15.7441339 279.522596,15.7350528 281.559896,15.7249627 C287.734365,15.6967104 287.700326,6.02586358 281.516347,6.05411584 C273.643461,6.09094466 265.771075,6.12777349 257.89869,6.16409782 C251.724221,6.19285457 251.757759,15.8642059 257.94274,15.8354492 C260.579216,15.8233411 263.215691,15.8107284 265.852668,15.7986203 C265.961791,23.0377555 266.270639,30.2698275 266.892842,37.483233 C264.962162,37.4635573 263.032485,37.4423681 261.103307,37.4469086 C254.928338,37.4610348 254.963878,47.1318816 261.147357,47.11826 C268.878583,47.1006023 276.627829,47.4905843 284.326018,46.5693591 C286.898922,46.2616113 289.114422,44.5367104 289.101408,41.7114852 C289.090395,39.3271969 286.871391,36.588242 284.281468,36.8980077" id="Fill-23" fill="#8D52FF"></path>
                <path d="M323.702807,30.3619179 C318.877861,30.1918999 314.054917,30.3457738 309.229471,30.3780621 C303.055503,30.4199359 303.08854,40.0912873 309.273521,40.0494134 C310.436333,40.0418459 311.598645,40.0262062 312.761458,40.0105666 C310.19456,41.4262062 306.670583,41.3232873 303.912971,40.1407287 C303.731265,40.063035 302.765175,39.4591431 302.622013,39.3925486 C302.480854,39.2477558 302.095419,38.8517197 302.021836,38.7926927 C301.498746,38.1111071 301.282502,37.256981 301.082776,35.9144945 C301.029716,35.5623504 300.969649,33.5095215 300.986668,32.5181702 C301.013198,31.0318999 301.074767,29.4855936 301.282502,28.0386747 C302.041859,22.7449089 304.260363,17.2044404 310.093947,16.3407287 C312.502165,15.984044 314.806265,16.1873594 316.401566,17.2468188 C316.419086,17.2851612 316.764976,17.5853413 316.970708,17.773017 C316.913143,17.7952152 317.566381,18.8178459 317.502308,18.5756837 C318.063442,19.9731612 317.935798,21.3428909 317.789132,22.8750711 C317.53935,25.4783143 320.203357,27.6996477 322.608572,27.6885486 C325.420746,27.6754314 327.133679,25.4414855 327.384462,22.8306747 C328.107778,15.2908549 323.878505,8.38116117 316.237381,6.94786387 C308.273392,5.45453054 300.232817,8.26865666 295.731737,15.196008 C291.965986,20.9922603 290.873754,29.0724044 291.49045,35.8690891 C292.179227,43.4623864 296.646769,48.8853053 304.277382,50.1879359 C308.597258,50.9255215 312.949169,50.4775215 316.604795,48.7803684 C318.184078,53.2376657 325.932323,52.6458819 325.917807,47.0428549 C325.908296,43.5779179 325.990389,40.6124404 327.87902,37.6187107 C329.914818,34.3903864 327.174725,30.484008 323.702807,30.3619179" id="Fill-25" fill="#039DEF"></path>
                <path d="M363.20859,26.5896881 C361.87909,21.2606071 362.170919,14.1137962 361.768966,8.13592237 C361.593267,5.5301566 359.658584,3.30983228 356.949025,3.32294939 C354.478237,3.33404849 351.997437,5.56143588 352.173135,8.18082327 C352.482484,12.7834179 352.51402,17.5086071 352.920479,22.151562 C348.76629,16.6600305 344.826343,11.0211836 341.611214,4.88489534 C340.628105,3.00712957 338.154813,2.13181426 336.183588,2.68777822 C333.99712,3.30478723 332.913898,5.22442687 332.682637,7.3670575 C331.477777,18.5357782 334.193842,29.6606071 334.318483,40.8197422 C334.388062,47.0402827 343.983892,47.009508 343.914314,40.7748413 C343.852744,35.2928953 343.16697,29.8190215 342.62686,24.3446431 C347.232559,30.6252197 352.217685,36.6434539 356.849914,42.9028413 C359.095448,45.9384449 364.68776,46.1679944 365.613805,41.7066611 C366.702033,36.4603188 364.453996,31.5812557 363.20859,26.5896881" id="Fill-27" fill="#5B7DF9"></path>
                <path d="M108.076806,17.5155977 C111.063677,17.4298319 114.585652,16.4510932 117.44538,17.6361743 C119.108256,18.3253274 122.332896,21.8957058 120.835206,23.8496517 C119.667387,25.3732554 121.788281,27.5204265 122.969114,25.9796698 C125.290234,22.9511292 123.558279,19.0013635 121.139048,16.5524986 C117.625583,12.9957418 112.490787,14.36194 108.06329,14.4885707 C106.133612,14.5435617 106.14062,17.5705887 108.076806,17.5155977" id="Fill-29" fill="#66FFFF"></path>
                <path d="M40.5556169,10.0301185 C41.1497875,15.6987311 56.9150813,40.3579023 46.6344779,42.170587 C44.7348339,42.505578 45.5537582,45.4190915 47.4463943,45.085614 C55.0234463,43.7496861 53.1898768,34.9006771 51.4183774,29.6215419 C50.117409,25.7434158 48.4234971,22.0070554 46.7571164,18.2787672 C45.629844,15.7572536 43.8523378,12.8185149 43.5590068,10.0164969 C43.3577796,8.09736175 40.3523875,8.0913077 40.5556169,10.0301185" id="Fill-31" fill="#4DD1FF"></path>
                <path d="M5.50626714,15.5950051 C5.55332025,21.7146447 6.19654624,28.069888 8.01309652,33.9261763 C9.58487053,38.995942 12.8155169,45.1473655 18.9939903,44.4794015 C20.8966378,44.2735637 20.9031451,41.2440141 18.9799745,41.4523745 C13.5092999,42.0441582 11.4074276,35.3150772 10.3352174,31.0691673 C9.06478353,26.0342123 8.54920161,20.7697078 8.50965697,15.5813835 C8.49514059,13.6334916 5.49175076,13.6440862 5.50626714,15.5950051" id="Fill-33" fill="#4DD1FF"></path>
                <path d="M156.63274,7.06306306 C161.339552,7.06407207 166.358717,7.43891892 169.755551,11.1424865 C174.251125,16.0432432 173.083307,22.6784865 170.359733,28.173045 C169.497259,29.9115676 172.094691,31.4336577 172.959667,29.6890811 C176.077687,23.3999279 177.350623,15.9499099 172.755937,10.0547748 C168.78045,4.95272072 162.688074,4.03704505 156.619224,4.03603604 C154.685542,4.03603604 154.697555,7.06306306 156.63274,7.06306306" id="Fill-35" fill="#52B1FF"></path>
                <path d="M161.756875,42.6898196 C163.705074,40.7414232 166.033201,39.1860359 167.232054,36.6054953 C168.047475,34.8513332 165.452045,33.325207 164.631619,35.0904683 C163.551901,37.4137115 161.381451,38.8005944 159.622966,40.5592971 C158.248916,41.9335674 160.383325,44.0640899 161.756875,42.6898196" id="Fill-37" fill="#52B1FF"></path>
                <path d="M431.273095,5.97718773 C436.837876,6.97913367 440.053506,14.1597463 435.30865,18.1312057 C431.889791,20.9917463 427.185982,21.6188454 423.902276,24.7336562 C423.262054,25.3410796 423.33013,26.7279625 424.217132,27.1093679 C427.946841,28.7111697 429.13318,35.8766472 429.446534,39.4818364 C429.613723,41.4085391 432.618614,41.4115661 432.449924,39.4682148 C432.193134,36.5143409 431.490341,33.555422 430.422135,30.7952778 C429.502097,28.4170436 428.20263,25.5539805 425.721329,24.4879625 C425.825947,25.2805391 425.931066,26.0721066 426.036185,26.8636742 C430.35606,22.7655841 437.631272,22.7600346 440.148613,16.5758184 C442.46723,10.8819805 437.770429,4.08327782 432.057981,3.05459313 C430.166847,2.71405259 429.369947,5.63462917 431.273095,5.97718773" id="Fill-39" fill="#4DD1FF"></path>
                <path d="M412.966827,37.1606097 C412.941799,35.5603214 414.047547,34.2758529 414.938052,33.0483935 C415.420096,32.382952 415.034661,31.3648619 414.389933,30.979925 C413.629075,30.5263755 412.813654,30.8754926 412.337617,31.5323574 C411.098719,33.2411142 409.929399,34.9685376 409.963437,37.1742313 C409.993972,39.1211142 412.997362,39.1120331 412.966827,37.1606097" id="Fill-41" fill="#4DD1FF"></path>
                <path d="M378.382834,13.1166503 C382.837362,13.1136233 387.233323,13.3830287 391.59875,14.3284701 C393.484378,14.7371188 394.275772,11.8160377 392.384137,11.4058755 C387.76242,10.4054431 383.088145,10.0860917 378.369319,10.0901278 C376.436137,10.0916413 376.44765,13.1186683 378.382834,13.1166503" id="Fill-43" fill="#00ADE9"></path>
                <path d="M383.889109,30.1774152 C388.670005,30.1047665 393.755245,29.0513611 398.417507,30.49828 C400.269597,31.0724062 401.046975,28.1477935 399.202894,27.5756854 C394.250304,26.0389647 388.947318,27.0737035 383.875094,27.1503881 C381.943413,27.1796494 381.952924,30.2066764 383.889109,30.1774152" id="Fill-45" fill="#00ADE9"></path>
                <path d="M380.885657,45.4528245 C385.024329,45.4154912 389.18102,45.1395272 393.221581,46.2262299 C395.091691,46.7292209 395.874575,43.8066263 394.006467,43.3036353 C389.699606,42.145293 385.284622,42.3859416 380.872142,42.426302 C378.939461,42.4434551 378.949973,45.4704822 380.885657,45.4528245" id="Fill-47" fill="#00ADE9"></path>
                <path d="M191.568104,9.5618832 C197.43823,7.71035167 204.062707,8.85103635 210.04646,9.53009941 C211.963624,9.74754086 211.93359,6.71849581 210.032945,6.50307239 C203.756361,5.79020752 196.916641,4.70350482 190.756188,6.64685617 C188.917112,7.22703635 189.716515,10.1460994 191.568104,9.5618832" id="Fill-49" fill="#A08DFF"></path>
                <path d="M193.17398,26.3789808 C198.475464,26.3219718 203.83201,25.7533952 209.021867,27.136242 C210.892479,27.634188 211.676864,24.7115934 209.807254,24.2136474 C204.343587,22.7576474 198.740763,23.2919177 193.160465,23.3519537 C191.227784,23.3726384 191.237795,26.3996654 193.17398,26.3789808" id="Fill-51" fill="#A08DFF"></path>
                <path d="M192.172917,41.3694259 C197.018386,41.4077683 201.8153,42.2760205 206.664273,42.1867232 C208.595453,42.1514079 208.586443,39.1243809 206.650257,39.1596962 C201.801284,39.2489935 197.00437,38.3807413 192.158901,38.3423989 C190.225219,38.3272638 190.238234,41.3542908 192.172917,41.3694259" id="Fill-53" fill="#A08DFF"></path>
                <path d="M249.083267,12.6642332 C244.679797,2.43136835 227.101457,3.28700799 225.275896,14.9062512 C224.976558,16.8137828 227.873828,17.619981 228.175669,15.6978188 C229.612291,6.55619717 243.100014,6.30999898 246.496848,14.203981 C247.263713,15.9858909 249.844626,14.4335305 249.083267,12.6642332" id="Fill-55" fill="#66FFFF"></path>
                <path d="M231.715305,28.7580083 C234.603064,28.8649632 237.577922,29.8679182 240.254943,30.8971074 C242.488964,31.756783 246.810842,33.2768551 247.422032,35.9809993 C247.850516,37.8794497 250.743781,37.0616479 250.314297,35.162693 C249.540423,31.7371074 245.501364,29.8492515 242.614606,28.61372 C239.218773,27.1602425 235.422989,25.868711 231.701289,25.7309812 C229.768107,25.6593416 229.786127,28.6868731 231.715305,28.7580083" id="Fill-57" fill="#66FFFF"></path>
                <path d="M226.211084,41.8794824 C230.007869,41.9026896 233.884745,42.4586536 237.583419,41.3295725 C239.428502,40.7665455 238.628599,37.8479869 236.771503,38.41505 C233.356148,39.4568518 229.704527,38.8736446 226.197568,38.8524554 C224.263886,38.8408518 224.2764,41.8678788 226.211084,41.8794824" id="Fill-59" fill="#66FFFF"></path>
                <path d="M266.638185,18.6220346 C266.610654,24.6559084 265.600013,30.8038003 267.213834,36.7206292 C267.725912,38.5968814 270.620179,37.7861427 270.106599,35.9023229 C268.572868,30.2806292 269.615545,24.3451337 269.641575,18.6084129 C269.650585,16.659512 266.647195,16.6721247 266.638185,18.6220346" id="Fill-61" fill="#A08DFF"></path>
                <path d="M270.761174,9.29730787 C274.573978,9.23777634 278.479386,8.61673129 282.217104,9.63229886 C284.085713,10.1403349 284.869097,7.21723579 283.00199,6.70970426 C278.978949,5.616443 274.85029,6.20570426 270.747659,6.27028084 C268.815979,6.30055111 268.824989,9.32808264 270.761174,9.29730787" id="Fill-63" fill="#A08DFF"></path>
                <path d="M308.303738,34.8108237 C313.194258,34.8083012 318.022207,35.1190759 322.836641,36.0165895 C324.727775,36.3687336 325.523173,33.448157 323.622027,33.0939949 C318.550303,32.1490579 313.444039,31.7812741 308.290223,31.7837967 C306.357041,31.7848057 306.368554,34.8118327 308.303738,34.8108237" id="Fill-65" fill="#52B1FF"></path>
                <path d="M326.621534,19.7530432 C326.510409,11.2632414 318.045355,5.82770985 310.154448,6.06129543 C302.105364,6.29992606 300.339871,14.6752053 297.046154,20.4543044 C296.081064,22.1464125 298.683001,23.6599261 299.646088,21.969836 C301.991735,17.8550972 303.469403,10.4267729 308.789408,9.2492594 C315.264216,7.8159621 323.527042,12.8090432 323.618145,19.7666648 C323.643673,21.7135477 326.647063,21.7039621 326.621534,19.7530432" id="Fill-67" fill="#52B1FF"></path>
                <path d="M336.982279,5.37106948 C340.215428,14.0949614 349.774217,18.307574 352.885729,26.9784929 C353.538466,28.7972316 356.437738,27.998601 355.778494,26.1601866 C352.625435,17.3742407 343.074656,13.1863488 339.874544,4.55276318 C339.203787,2.74310552 336.304014,3.54022264 336.982279,5.37106948" id="Fill-69" fill="#A08DFF"></path>
                <path d="M356.358162,7.58373443 L359.870627,7.56759029 C361.802807,7.5580047 361.791795,4.53097767 359.85611,4.54056326 C358.685289,4.54611281 357.515468,4.55115785 356.344647,4.5567074 C354.411465,4.56578848 354.422477,7.59281551 356.358162,7.58373443" id="Fill-71" fill="#A08DFF"></path>
                <path d="M296.927032,38.1755464 C297.986228,41.2242671 299.725691,43.9647356 303.231648,44.1246635 C305.163829,44.2129518 305.144808,41.1859248 303.217132,41.0976365 C301.225884,41.0068257 300.392444,39.0074743 299.818796,37.3577446 C299.18408,35.5299248 296.285809,36.3300689 296.927032,38.1755464" id="Fill-73" fill="#52B1FF"></path>
                <path d="M66.0302903,11.6893898 C72.176227,11.660633 78.3226643,11.6323808 84.4691016,11.603624 C86.4012824,11.5945429 86.3907705,8.56751589 84.4550857,8.57659697 L66.016775,8.66236273 C64.0840937,8.67144382 64.0946055,11.6984708 66.0302903,11.6893898" id="Fill-75" fill="#A08DFF"></path>
                <path d="M69.0339316,29.3409934 L86.1552559,29.2612817 C88.0874366,29.2522006 88.0769248,26.2251735 86.14124,26.2342546 L69.0199157,26.3139663 C67.0872344,26.3230474 67.0982468,29.3500744 69.0339316,29.3409934" id="Fill-77" fill="#A08DFF"></path>
                <path d="M67.0296605,40.4836691 C72.1844785,40.4493628 77.3588186,40.2556331 82.4370503,40.9891826 C84.3236797,41.2616151 85.1200785,39.2309844 83.2259407,38.957543 C77.8744006,38.1846421 72.4537825,38.34457 67.0196492,38.3803898 C65.0874684,38.393507 65.0934751,40.4962817 67.0296605,40.4836691" id="Fill-79" fill="#A08DFF"></path>
                <path d="M108.578564,41.4102546 C111.505368,41.396633 114.431671,41.3830114 117.358474,41.3693898 C119.291155,41.3603087 119.280643,38.3332817 117.344959,38.3423627 C114.418155,38.3559844 111.490851,38.369606 108.564549,38.3832276 C106.631867,38.3923087 106.64288,41.4193357 108.578564,41.4102546" id="Fill-81" fill="#66FFFF"></path>
                <path d="M38.5435031,15.5954483 C38.5465065,20.1334664 40.9817551,24.1195565 43.3569358,27.8069799 C44.40612,29.4360249 47.0000477,27.9073763 45.9433551,26.2672321 C43.8735189,23.0535384 41.5493957,19.5512682 41.5468929,15.5813222 C41.5458918,13.6329258 38.5425019,13.6445294 38.5435031,15.5954483" id="Fill-83" fill="#11808E"></path>
                <path d="M30.9896224,45.9104497 C32.8992778,45.9563596 34.4730541,47.1096569 36.1469433,47.9022335 C37.858375,48.7134768 39.5723094,49.1912425 41.4744563,49.0731885 C43.3956247,48.9541254 43.394123,45.9260894 41.4609411,46.046666 C37.6100947,46.2847921 34.8039275,42.975747 30.9761072,42.8834227 C29.0424247,42.8365038 29.0579422,45.8635308 30.9896224,45.9104497" id="Fill-85" fill="#11808E"></path>
                <path d="M62.0272518,13.5769883 C62.0457728,23.4642676 61.2028213,33.3419612 61.7604507,43.226718 C61.8695739,45.1640153 64.8739648,45.1619973 64.7638405,43.2125919 C64.2062112,33.3278351 65.0491626,23.4501414 65.0306417,13.5633667 C65.0266372,11.6149703 62.0232473,11.6265739 62.0272518,13.5769883" id="Fill-87" fill="#5A52FF"></path>
                <path d="M97.6101875,17.6128345 C97.6467288,26.7090507 97.6146926,35.8012309 98.9972531,44.8142039 C99.2910847,46.7328345 102.182348,45.9034291 101.889517,43.9958976 C100.550006,35.2644381 100.649117,26.4093751 100.613577,17.5992129 C100.605068,15.651321 97.6016779,15.6624201 97.6101875,17.6128345" id="Fill-89" fill="#00B7D7"></path>
                <path d="M151.671209,7.0186183 C151.710754,15.6829787 151.750298,24.347339 151.789843,33.0111949 C151.799354,34.9590868 154.802743,34.9479877 154.793233,32.9970687 C154.753688,24.3327084 154.714143,15.6688525 154.674599,7.00499667 C154.665088,5.05660028 151.661698,5.06769938 151.671209,7.0186183" id="Fill-91" fill="#0B7FB2"></path>
                <path d="M184.708511,12.5679781 C184.764073,21.5047709 185.180543,30.4345006 185.234604,39.3712934 C185.246117,41.3186808 188.249507,41.3080862 188.237994,39.3571673 C188.183933,30.4203745 187.767463,21.4911492 187.7119,12.5543564 C187.699887,10.6064646 184.696497,10.6170591 184.708511,12.5679781" id="Fill-93" fill="#5A52FF"></path>
                <path d="M260.249939,48.4324327 C267.646287,48.4319282 275.019609,49.1452976 282.416458,49.1412615 C284.34964,49.1402525 284.337626,46.11373 282.402442,46.1142345 C275.006094,46.1182705 267.632271,45.4049012 260.235923,45.4054057 C258.302741,45.4054057 258.314254,48.4324327 260.249939,48.4324327" id="Fill-95" fill="#5A52FF"></path>
                <path d="M335.835062,45.4261105 C337.312229,45.4190474 338.789897,45.4124889 340.267064,45.4054258 C342.200246,45.3963447 342.189233,42.3693177 340.253549,42.3783988 C338.775881,42.3854618 337.298713,42.3920204 335.821046,42.3990835 C333.888364,42.4081645 333.899377,45.4351916 335.835062,45.4261105" id="Fill-97" fill="#5A52FF"></path>
                <path d="M356.850674,43.7488614 C358.891478,43.8986992 360.994852,43.6686452 362.887488,42.8548794 C363.638836,42.5309875 364.157922,41.8509154 363.927662,40.9877082 C363.738448,40.2768614 362.820913,39.618483 362.075572,39.9393479 C360.39067,40.6643208 358.654711,40.855528 356.837159,40.7218343 C354.908482,40.5805731 354.932009,43.6081046 356.850674,43.7488614" id="Fill-99" fill="#5A52FF"></path>
                <path d="M420.411103,6.51392401 C420.451148,12.4373114 417.26305,18.1145006 414.648098,23.2407709 C413.765602,24.9712213 416.363034,26.4917979 417.248533,24.7563024 C420.111264,19.1441943 423.458542,12.9806627 423.414493,6.50030239 C423.401478,4.5524105 420.398088,4.56300509 420.411103,6.51392401" id="Fill-101" fill="#11808E"></path>
                <path d="M332.875717,11.5591588 C332.900244,19.5656453 332.700018,27.5660778 333.845311,35.5130327 C334.121122,37.4331769 337.011885,36.6022579 336.737576,34.6947264 C335.63383,27.033321 335.902633,19.2629426 335.879107,11.5455372 C335.872599,9.59714082 332.869209,9.60823992 332.875717,11.5591588" id="Fill-103" fill="#5A52FF"></path>
                <path d="M372.920926,16.0996994 C372.953463,23.2747624 372.986501,30.4498255 373.019037,37.6248886 C373.028548,39.572276 376.031437,39.5616814 376.022427,37.6112669 C375.98989,30.4356994 375.956853,23.2606363 375.923816,16.0860778 C375.914806,14.1376814 372.911416,14.1487805 372.920926,16.0996994" id="Fill-105" fill="#0B7FB2"></path>
                <path d="M294.832789,25.685285 C294.839797,27.1745823 294.846304,28.6633751 294.853312,30.1526724 C294.862322,32.1005642 297.865712,32.0894651 297.856702,30.1385462 C297.849694,28.6497534 297.843186,27.1604561 297.836178,25.6716633 C297.827168,23.7232669 294.823778,23.734366 294.832789,25.685285" id="Fill-107" fill="#0B7FB2"></path>
                <path d="M311.851998,38.2979612 C311.859006,39.786754 311.865513,41.2760513 311.872521,42.7648441 C311.881531,44.7132405 314.884921,44.7021414 314.875911,42.7512225 C314.868903,41.2624297 314.862395,39.7731324 314.855387,38.2838351 C314.846377,36.3359432 311.842987,36.3470423 311.851998,38.2979612" id="Fill-109" fill="#52B1FF"></path>
                <path d="M270.873371,18.6224754 C270.882882,25.1260429 270.524978,31.6452502 271.365426,38.1150159 C271.613707,40.0205294 274.619599,40.0306195 274.368816,38.1008898 C273.528368,31.631124 273.886272,25.1119168 273.876761,18.6083492 C273.873758,16.6599529 270.870368,16.6715565 270.873371,18.6224754" id="Fill-111" fill="#5A52FF"></path>
                <path d="M225.200805,47.5207302 C231.192568,47.0217753 237.008132,49.1896311 242.926812,47.3840095 C244.772896,46.8209825 243.971992,43.9024239 242.115396,44.4689825 C236.512072,46.1777392 230.879215,44.0199735 225.18679,44.4937032 C223.27313,44.6526221 223.271128,47.6811627 225.200805,47.5207302" id="Fill-113" fill="#00B7D7"></path>
                <path d="M19.9887516,17.1087746 C19.9532115,22.6653872 18.2843279,29.528162 21.4819369,34.517207 C22.5281177,36.1487746 25.1215448,34.620126 24.0683561,32.9774593 C21.2581844,28.5938196 22.9606059,21.9994413 22.9921415,17.0946485 C23.004155,15.1457476 20.0007652,15.1588647 19.9887516,17.1087746" id="Fill-115" fill="#11808E"></path>
                <path d="M373.870789,54.0599121 C380.228965,54.0286328 386.529076,53.3702544 392.806661,52.3814256 C394.710811,52.0817499 393.902398,49.1642004 392.00776,49.462867 C385.994973,50.409822 379.959661,51.0021103 373.870789,51.032885 C371.939109,51.0429751 371.934604,54.0700022 373.870789,54.0599121" id="Fill-117" fill="#0B7FB2"></path>
            </g>
        </g>
    </g>
</svg>